<mxfile host="app.diagrams.net" modified="2023-12-16T21:14:34.447Z" agent="Mozilla/5.0 (Macintosh; Intel Mac OS X 10_15_7) AppleWebKit/537.36 (KHTML, like Gecko) Chrome/120.0.0.0 Safari/537.36" etag="OmY4z7jrbNwsS2VgR7nf" version="22.1.11" type="device">
  <diagram name="Page-1" id="s6kaM4M7mWy0pAjQQNw3">
    <mxGraphModel dx="473" dy="292" grid="1" gridSize="10" guides="1" tooltips="1" connect="1" arrows="1" fold="1" page="1" pageScale="1" pageWidth="827" pageHeight="1169" math="0" shadow="0">
      <root>
        <mxCell id="0" />
        <mxCell id="1" parent="0" />
        <mxCell id="0O8-xnHTSifPdZ3OBbvN-3" style="edgeStyle=orthogonalEdgeStyle;rounded=0;orthogonalLoop=1;jettySize=auto;html=1;" edge="1" parent="1" source="0O8-xnHTSifPdZ3OBbvN-2" target="0O8-xnHTSifPdZ3OBbvN-5">
          <mxGeometry relative="1" as="geometry">
            <mxPoint x="200" y="60" as="targetPoint" />
          </mxGeometry>
        </mxCell>
        <mxCell id="0O8-xnHTSifPdZ3OBbvN-4" value="set" style="edgeLabel;html=1;align=center;verticalAlign=middle;resizable=0;points=[];fontSize=12;" vertex="1" connectable="0" parent="0O8-xnHTSifPdZ3OBbvN-3">
          <mxGeometry x="-0.1166" y="1" relative="1" as="geometry">
            <mxPoint y="-8" as="offset" />
          </mxGeometry>
        </mxCell>
        <mxCell id="0O8-xnHTSifPdZ3OBbvN-2" value="State" style="rounded=0;whiteSpace=wrap;html=1;fontSize=16;" vertex="1" parent="1">
          <mxGeometry x="40" y="40" width="80" height="40" as="geometry" />
        </mxCell>
        <mxCell id="0O8-xnHTSifPdZ3OBbvN-8" value="" style="edgeStyle=orthogonalEdgeStyle;rounded=0;orthogonalLoop=1;jettySize=auto;html=1;" edge="1" parent="1" source="0O8-xnHTSifPdZ3OBbvN-5" target="0O8-xnHTSifPdZ3OBbvN-7">
          <mxGeometry relative="1" as="geometry" />
        </mxCell>
        <mxCell id="0O8-xnHTSifPdZ3OBbvN-9" value="Same value" style="edgeLabel;html=1;align=center;verticalAlign=middle;resizable=0;points=[];fontSize=12;" vertex="1" connectable="0" parent="0O8-xnHTSifPdZ3OBbvN-8">
          <mxGeometry x="-0.1433" y="-1" relative="1" as="geometry">
            <mxPoint as="offset" />
          </mxGeometry>
        </mxCell>
        <mxCell id="0O8-xnHTSifPdZ3OBbvN-11" value="" style="edgeStyle=orthogonalEdgeStyle;rounded=0;orthogonalLoop=1;jettySize=auto;html=1;" edge="1" parent="1" source="0O8-xnHTSifPdZ3OBbvN-5" target="0O8-xnHTSifPdZ3OBbvN-10">
          <mxGeometry relative="1" as="geometry" />
        </mxCell>
        <mxCell id="0O8-xnHTSifPdZ3OBbvN-12" value="New value" style="edgeLabel;html=1;align=center;verticalAlign=middle;resizable=0;points=[];fontSize=12;" vertex="1" connectable="0" parent="0O8-xnHTSifPdZ3OBbvN-11">
          <mxGeometry x="-0.2408" y="1" relative="1" as="geometry">
            <mxPoint x="-5" y="-7" as="offset" />
          </mxGeometry>
        </mxCell>
        <mxCell id="0O8-xnHTSifPdZ3OBbvN-5" value="" style="rhombus;whiteSpace=wrap;html=1;" vertex="1" parent="1">
          <mxGeometry x="190" y="35" width="50" height="50" as="geometry" />
        </mxCell>
        <mxCell id="0O8-xnHTSifPdZ3OBbvN-7" value="" style="ellipse;whiteSpace=wrap;html=1;" vertex="1" parent="1">
          <mxGeometry x="205" y="130" width="20" height="20" as="geometry" />
        </mxCell>
        <mxCell id="0O8-xnHTSifPdZ3OBbvN-10" value="" style="ellipse;whiteSpace=wrap;html=1;" vertex="1" parent="1">
          <mxGeometry x="370" y="50" width="20" height="20" as="geometry" />
        </mxCell>
        <mxCell id="0O8-xnHTSifPdZ3OBbvN-14" value="" style="endArrow=none;dashed=1;html=1;dashPattern=1 3;strokeWidth=2;rounded=0;fillColor=#1ba1e2;strokeColor=#006EAF;" edge="1" parent="1" target="0O8-xnHTSifPdZ3OBbvN-16">
          <mxGeometry width="50" height="50" relative="1" as="geometry">
            <mxPoint x="315" y="60" as="sourcePoint" />
            <mxPoint x="290.40853499869894" y="120" as="targetPoint" />
          </mxGeometry>
        </mxCell>
        <mxCell id="0O8-xnHTSifPdZ3OBbvN-15" value="changed&lt;br style=&quot;font-size: 12px;&quot;&gt;" style="edgeLabel;html=1;align=center;verticalAlign=middle;resizable=0;points=[];fontSize=12;fontColor=#006EAF;rotation=270;" vertex="1" connectable="0" parent="0O8-xnHTSifPdZ3OBbvN-14">
          <mxGeometry x="0.2113" relative="1" as="geometry">
            <mxPoint x="-9" y="-11" as="offset" />
          </mxGeometry>
        </mxCell>
        <mxCell id="0O8-xnHTSifPdZ3OBbvN-16" value="" style="sketch=0;outlineConnect=0;fontColor=#ffffff;fillColor=#006EAF;strokeColor=#006EAF;dashed=0;verticalLabelPosition=bottom;verticalAlign=top;align=center;html=1;fontSize=12;fontStyle=0;aspect=fixed;pointerEvents=1;shape=mxgraph.aws4.event;" vertex="1" parent="1">
          <mxGeometry x="305" y="130" width="20" height="20" as="geometry" />
        </mxCell>
      </root>
    </mxGraphModel>
  </diagram>
</mxfile>
